<svg xmlns="http://www.w3.org/2000/svg" viewBox="0 0 596.383 173.623">
  <path d="M555.68 0l-11.93 21.381-10.367 18.553-74.607 133.689H-1.24V0h556.92z"/>
  <path fill="#FFF" d="M347.678 31.95h2.12l21.56 50.189h-2.615l-7.422-17.319h-25.166l-7.422 17.319h-2.687l21.632-50.189zm12.865 30.75l-11.806-27.64-11.875 27.64h23.681zm34.284-15.056c-3.394.141-6.34 1.214-8.836 3.216-2.499 2.004-4.242 4.726-5.231 8.165V82.14h-2.403V45.381h2.332v9.331c1.273-2.591 2.969-4.712 5.09-6.362 2.121-1.648 4.383-2.615 6.787-2.897.47-.047.906-.071 1.307-.071h.955v2.262zm2.474 15.975c0-2.639.447-5.101 1.344-7.387.895-2.286 2.143-4.277 3.746-5.974 1.602-1.696 3.499-3.027 5.69-3.994 2.191-.965 4.56-1.449 7.104-1.449 3.204 0 6.055.742 8.553 2.227s4.359 3.523 5.585 6.115l-2.333.848c-1.178-2.167-2.828-3.863-4.948-5.089s-4.478-1.838-7.069-1.838c-2.12 0-4.111.424-5.973 1.271-1.862.849-3.488 2.015-4.878 3.5-1.39 1.484-2.474 3.24-3.251 5.266-.778 2.027-1.167 4.195-1.167 6.504 0 2.31.412 4.488 1.237 6.539.824 2.05 1.932 3.853 3.322 5.407 1.39 1.556 3.016 2.781 4.877 3.676 1.861.896 3.829 1.344 5.903 1.344 1.366 0 2.722-.2 4.064-.602 1.343-.399 2.58-.93 3.712-1.59 1.131-.66 2.107-1.425 2.934-2.298.823-.871 1.378-1.803 1.66-2.792l2.404.707c-.425 1.272-1.121 2.45-2.086 3.534-.967 1.085-2.098 2.015-3.393 2.792-1.297.777-2.722 1.391-4.277 1.838-1.555.447-3.158.672-4.807.672-2.498 0-4.831-.507-6.998-1.52-2.168-1.014-4.064-2.392-5.691-4.136-1.625-1.743-2.91-3.782-3.852-6.114-.941-2.332-1.412-4.817-1.412-7.457z"/>
  <path fill="#FCFCFC" d="M28.371 140.157V92.609h15.537c3.75 0 7.032.626 9.844 1.875 2.813 1.25 5.146 2.946 6.999 5.09 1.852 2.143 3.248 4.654 4.186 7.534.938 2.879 1.406 5.949 1.406 9.208 0 3.616-.525 6.887-1.574 9.811-1.049 2.925-2.545 5.425-4.487 7.501-1.942 2.076-4.298 3.684-7.065 4.821-2.769 1.139-5.871 1.708-9.309 1.708H28.371zm35.627-23.841c0-3.125-.436-6.004-1.306-8.639-.871-2.634-2.166-4.911-3.884-6.831-1.719-1.919-3.829-3.416-6.328-4.487-2.501-1.071-5.358-1.607-8.572-1.607H30.714v43.263h13.193c3.304 0 6.205-.547 8.706-1.642 2.5-1.093 4.598-2.611 6.295-4.554 1.696-1.941 2.969-4.241 3.817-6.897.848-2.656 1.273-5.526 1.273-8.606zm25.514 24.511c-2.367 0-4.577-.48-6.63-1.44-2.054-.959-3.851-2.276-5.391-3.951-1.54-1.674-2.746-3.616-3.616-5.826s-1.306-4.564-1.306-7.065c0-2.454.424-4.754 1.272-6.897.847-2.143 2.031-4.018 3.549-5.625 1.517-1.607 3.281-2.88 5.291-3.817 2.009-.938 4.196-1.406 6.563-1.406 2.411 0 4.643.469 6.697 1.406 2.053.938 3.839 2.222 5.357 3.851 1.517 1.63 2.712 3.539 3.583 5.726.871 2.188 1.306 4.51 1.306 6.965v.536c0 .268-.023.425-.067.469H74.913c.178 2.143.68 4.142 1.507 5.993.826 1.854 1.897 3.449 3.214 4.789 1.316 1.339 2.835 2.4 4.554 3.181 1.718.781 3.538 1.172 5.458 1.172 1.249 0 2.488-.167 3.717-.502 1.227-.335 2.377-.814 3.449-1.44 1.071-.624 2.009-1.372 2.813-2.243.804-.87 1.451-1.818 1.942-2.846l2.076.535c-.492 1.206-1.205 2.334-2.143 3.382-.938 1.05-2.043 1.942-3.315 2.679-1.272.737-2.646 1.317-4.119 1.741-1.473.42-2.991.633-4.554.633zm14.399-19.019c-.134-2.187-.603-4.196-1.406-6.027-.804-1.83-1.865-3.415-3.181-4.755-1.317-1.339-2.824-2.377-4.521-3.113-1.697-.737-3.527-1.105-5.491-1.105-1.965 0-3.795.38-5.492 1.139-1.697.76-3.181 1.808-4.453 3.147-1.272 1.339-2.3 2.925-3.081 4.755-.782 1.831-1.239 3.817-1.373 5.96h28.998zm19.957 18.349l-14.867-34.824h2.411l13.595 32.213 13.662-32.213h2.344l-14.867 34.824h-2.278zm37.368.67c-2.367 0-4.577-.48-6.63-1.44-2.054-.959-3.851-2.276-5.391-3.951-1.54-1.674-2.746-3.616-3.616-5.826s-1.306-4.564-1.306-7.065c0-2.454.424-4.754 1.272-6.897.847-2.143 2.031-4.018 3.549-5.625 1.517-1.607 3.281-2.88 5.291-3.817 2.009-.938 4.196-1.406 6.563-1.406 2.411 0 4.643.469 6.697 1.406 2.053.938 3.839 2.222 5.357 3.851 1.517 1.63 2.712 3.539 3.583 5.726.871 2.188 1.306 4.51 1.306 6.965v.536c0 .268-.023.425-.067.469h-31.208c.178 2.143.68 4.142 1.507 5.993.826 1.854 1.897 3.449 3.214 4.789 1.316 1.339 2.835 2.4 4.554 3.181 1.718.781 3.538 1.172 5.458 1.172 1.249 0 2.488-.167 3.717-.502 1.227-.335 2.377-.814 3.449-1.44 1.071-.624 2.009-1.372 2.813-2.243.804-.87 1.451-1.818 1.942-2.846l2.076.535c-.492 1.206-1.205 2.334-2.143 3.382-.938 1.05-2.043 1.942-3.315 2.679-1.272.737-2.646 1.317-4.119 1.741-1.472.42-2.99.633-4.553.633zm14.399-19.019c-.134-2.187-.603-4.196-1.406-6.027-.804-1.83-1.865-3.415-3.181-4.755-1.317-1.339-2.824-2.377-4.521-3.113-1.697-.737-3.527-1.105-5.491-1.105-1.965 0-3.795.38-5.492 1.139-1.697.76-3.181 1.808-4.453 3.147-1.272 1.339-2.3 2.925-3.081 4.755-.782 1.831-1.239 3.817-1.373 5.96h28.998zm10.312-30.538h2.21v42.928c0 1.295.402 2.321 1.206 3.08.804.76 1.852 1.139 3.147 1.139.491 0 1.082-.056 1.775-.167.691-.111 1.328-.278 1.909-.503l.536 1.875c-.67.225-1.507.425-2.511.604-1.005.178-1.865.268-2.579.268-1.697 0-3.07-.524-4.119-1.574-1.049-1.048-1.574-2.466-1.574-4.252V91.27zm30.47 49.557c-2.367 0-4.565-.48-6.597-1.44-2.032-.959-3.807-2.254-5.324-3.884-1.519-1.629-2.702-3.538-3.549-5.726-.849-2.188-1.272-4.487-1.272-6.898 0-2.454.435-4.776 1.306-6.965.871-2.187 2.064-4.106 3.583-5.759 1.517-1.651 3.292-2.957 5.324-3.918 2.031-.959 4.208-1.439 6.53-1.439 2.321 0 4.509.48 6.563 1.439 2.053.961 3.839 2.267 5.357 3.918 1.517 1.652 2.712 3.572 3.583 5.759.871 2.188 1.306 4.511 1.306 6.965 0 2.411-.435 4.711-1.306 6.898s-2.054 4.097-3.549 5.726c-1.497 1.63-3.271 2.925-5.324 3.884-2.055.96-4.265 1.44-6.631 1.44zm-14.465-17.881c0 2.143.379 4.175 1.138 6.094.759 1.921 1.785 3.595 3.081 5.023 1.294 1.429 2.823 2.556 4.587 3.382 1.763.826 3.627 1.238 5.592 1.238 2.009 0 3.895-.424 5.659-1.272 1.763-.848 3.304-1.985 4.621-3.415 1.316-1.429 2.354-3.114 3.114-5.057.759-1.941 1.139-3.984 1.139-6.127 0-2.144-.38-4.186-1.139-6.128-.76-1.942-1.798-3.627-3.114-5.056-1.317-1.429-2.858-2.567-4.621-3.416-1.764-.848-3.628-1.272-5.592-1.272-1.965 0-3.817.425-5.559 1.272-1.741.849-3.271 1.999-4.587 3.449-1.317 1.451-2.367 3.147-3.147 5.09-.782 1.942-1.172 4.008-1.172 6.195zm55.851 17.881c-1.518 0-2.958-.225-4.319-.67-1.362-.445-2.635-1.049-3.817-1.809-1.184-.758-2.267-1.65-3.248-2.679-.982-1.026-1.831-2.119-2.544-3.281v22.033h-2.277v-49.089h2.143v7.233c.714-1.116 1.574-2.154 2.579-3.114 1.004-.96 2.098-1.785 3.281-2.479 1.183-.691 2.411-1.227 3.683-1.606 1.272-.379 2.579-.569 3.918-.569 2.411 0 4.643.514 6.697 1.54 2.053 1.027 3.817 2.389 5.291 4.085 1.474 1.697 2.623 3.628 3.449 5.793.825 2.166 1.239 4.364 1.239 6.597 0 2.41-.392 4.711-1.172 6.897-.782 2.188-1.875 4.097-3.282 5.726-1.406 1.631-3.092 2.937-5.056 3.918-1.967.982-4.154 1.474-6.565 1.474zm-.335-2.143c2.143 0 4.085-.457 5.827-1.372s3.225-2.12 4.453-3.617c1.228-1.495 2.177-3.191 2.846-5.089.67-1.897 1.005-3.828 1.005-5.793 0-2.054-.38-4.04-1.139-5.961-.76-1.919-1.808-3.616-3.147-5.089-1.339-1.474-2.903-2.646-4.688-3.517-1.786-.87-3.706-1.306-5.759-1.306-1.295 0-2.668.279-4.119.837-1.451.56-2.813 1.296-4.085 2.21-1.272.916-2.355 1.976-3.248 3.182-.894 1.205-1.406 2.478-1.54 3.817v11.987c.58 1.339 1.35 2.602 2.31 3.783.959 1.184 2.02 2.21 3.181 3.081 1.161.87 2.433 1.563 3.817 2.076 1.384.515 2.813.771 4.286.771zm75.341 1.473h-2.277v-19.421c0-4.731-.727-8.214-2.178-10.447-1.451-2.232-3.672-3.349-6.662-3.349-1.563 0-3.037.291-4.42.871-1.385.58-2.635 1.372-3.75 2.377-1.117 1.005-2.1 2.222-2.947 3.65-.849 1.429-1.496 2.969-1.942 4.62v21.698h-2.276v-19.421c0-4.777-.703-8.271-2.109-10.48s-3.629-3.315-6.664-3.315c-3.081 0-5.782 1.05-8.103 3.147-2.322 2.1-3.974 4.867-4.956 8.305v21.765h-2.277v-34.824h2.21v8.706c1.474-2.946 3.371-5.224 5.692-6.831 2.321-1.606 4.889-2.41 7.702-2.41 2.947 0 5.346.894 7.199 2.679 1.853 1.786 2.957 4.152 3.315 7.099 3.438-6.519 8.036-9.777 13.796-9.777 3.705 0 6.406 1.329 8.104 3.984 1.695 2.657 2.545 6.553 2.545 11.687v19.687zm24.912.67c-2.367 0-4.578-.48-6.631-1.44-2.053-.959-3.85-2.276-5.391-3.951-1.541-1.674-2.746-3.616-3.615-5.826-.871-2.21-1.307-4.564-1.307-7.065 0-2.454.424-4.754 1.271-6.897.848-2.143 2.031-4.018 3.551-5.625 1.518-1.607 3.281-2.88 5.289-3.817 2.01-.938 4.197-1.406 6.564-1.406 2.41 0 4.643.469 6.695 1.406 2.055.938 3.84 2.222 5.359 3.851 1.516 1.63 2.711 3.539 3.582 5.726.871 2.188 1.307 4.51 1.307 6.965v.536c0 .268-.023.425-.068.469H343.12c.178 2.143.68 4.142 1.506 5.993.826 1.854 1.898 3.449 3.215 4.789 1.316 1.339 2.836 2.4 4.555 3.181 1.719.781 3.537 1.172 5.457 1.172 1.25 0 2.488-.167 3.717-.502s2.379-.814 3.449-1.44c1.072-.624 2.01-1.372 2.813-2.243.805-.87 1.451-1.818 1.943-2.846l2.076.535c-.492 1.206-1.207 2.334-2.145 3.382-.938 1.05-2.041 1.942-3.314 2.679-1.271.737-2.645 1.317-4.119 1.741-1.472.42-2.989.633-4.552.633zm14.399-19.019c-.135-2.187-.604-4.196-1.406-6.027-.805-1.83-1.865-3.415-3.182-4.755-1.316-1.339-2.824-2.377-4.52-3.113-1.697-.737-3.527-1.105-5.492-1.105s-3.795.38-5.492 1.139c-1.697.76-3.18 1.808-4.453 3.147-1.271 1.339-2.299 2.925-3.08 4.755-.781 1.831-1.238 3.817-1.373 5.96h28.998zm37.634 18.349h-2.275v-19.421c0-4.777-.682-8.271-2.043-10.48-1.363-2.21-3.516-3.315-6.463-3.315-1.563 0-3.125.291-4.688.871-1.564.58-3.004 1.384-4.32 2.41-1.316 1.028-2.477 2.233-3.482 3.617-1.004 1.384-1.73 2.902-2.176 4.554v21.765h-2.277v-34.824h2.211v8.706c.713-1.383 1.607-2.646 2.678-3.783 1.072-1.139 2.277-2.109 3.617-2.913 1.338-.804 2.756-1.429 4.252-1.875s3.023-.67 4.588-.67c3.66 0 6.305 1.306 7.936 3.917 1.629 2.612 2.443 6.53 2.443 11.754v19.687zm24.579-1.607c-.09.045-.313.168-.67.368-.357.201-.836.425-1.439.67-.602.246-1.295.458-2.076.637-.781.178-1.641.268-2.578.268-1.74 0-3.248-.502-4.52-1.507-1.273-1.005-1.908-2.422-1.908-4.253v-27.39h-4.957v-2.01h4.957V93.346h2.275v11.987h8.238v2.01h-8.238v27.055c.09 1.296.58 2.277 1.475 2.947.893.67 1.918 1.004 3.08 1.004.713 0 1.395-.077 2.043-.234.646-.155 1.215-.334 1.707-.535.49-.201.893-.391 1.205-.569.313-.178.492-.29.537-.335l.869 1.874z"/>
  <path fill="#0B72B9" d="M544.135 20.786l-69.971 125.146c-15.527-13.43-25.361-33.262-25.361-55.396 0-40.406 32.768-73.171 73.17-73.171 7.729-.002 15.182 1.201 22.162 3.421z"/>
  <path d="M595.143 90.533c0 40.404-32.766 73.17-73.17 73.17-18.268 0-34.982-6.697-47.809-17.771l69.971-125.146c29.578 9.388 51.008 37.068 51.008 69.747z"/>
  <path fill="#FFF" d="M539.723 33.254l-.109 99.684-9.514-.012.074-64.799-36.461 64.748-9.848-.012 55.858-99.609z"/>
</svg>